# xmcd
#
# Track frame offsets:
#	150
#	25510
#	38340
#	50927
#	60652
#	72015
#	84645
#	95947
#	108897
#	119845
#	130642
#	149622
#
# Disc length: 2162 seconds
#
# Revision: 1
# Processed by: cddbd v1.5.2PL0 Copyright (c) Steve Scherf et al.
# Submitted via: audiograbber 1.80.04
#
DISCID=a908700c
DTITLE=Martinho da Vila - Origens (Pelo Telefone)
DYEAR=1973
DGENRE=Samba
TTITLE0=Tributo a Monsueto
TTITLE1=A Hora e a Vez do Samba
TTITLE2=Não Chora, Meu Amor
TTITLE3=Antônio, João e Pedro
TTITLE4=Tudo, Menos Amor
TTITLE5=Requenguela
TTITLE6=Pelo Telefone
TTITLE7=O Caveira
TTITLE8=Beto Navalha
TTITLE9=A Feira
TTITLE10=Som Africano
TTITLE11=Fim de Reinado
EXTD=
EXTT0=
EXTT1=
EXTT2=
EXTT3=
EXTT4=
EXTT5=
EXTT6=
EXTT7=
EXTT8=
EXTT9=
EXTT10=
EXTT11=
PLAYORDER=
